<svg xmlns="http://www.w3.org/2000/svg" width="16pt" height="16pt" viewBox="0 0 16 16"><path fill="#C5C5C5" d="M12.796875 3.609375C11.605469 2.3125 9.898438 1.5 8 1.5 4.410156 1.5 1.5 4.410156 1.5 8h1.21875c0-2.917969 2.363281-5.28125 5.28125-5.28125 1.5625 0 2.964844.679688 3.933594 1.753906L10.03125 6.375H14.5V1.90625zM13.28125 8c0 2.917969-2.363281 5.28125-5.28125 5.28125-1.5625 0-2.964844-.679688-3.933594-1.753906L5.96875 9.625H1.5v4.46875l1.703125-1.703125C4.394531 13.6875 6.101562 14.5 8 14.5c3.589844 0 6.5-2.910156 6.5-6.5zm0 0"/></svg>