<svg xmlns="http://www.w3.org/2000/svg" width="512" height="512"><path fill="#FFFFFF" d="M256 68.8c30.95 0 61.61 7.706 88.671 22.287 5.054 2.72 11.362.832 14.087-4.222 2.72-5.06.832-11.367-4.228-14.087C324.453 56.564 290.383 48 256 48 141.309 48 48 141.309 48 256c0 32.708 7.374 64.017 21.923 93.049 1.825 3.64 5.495 5.741 9.308 5.741 1.565 0 3.156-.348 4.654-1.102 5.132-2.574 7.212-8.819 4.638-13.957C75.435 313.617 68.799 285.443 68.799 256c0-103.225 83.975-187.2 187.2-187.2zm165.599 61.313c-3.479-4.566-10.01-5.455-14.576-1.976-4.571 3.479-5.46 10.005-1.981 14.576C430.007 175.499 443.2 214.676 443.2 256c0 103.225-83.975 187.2-187.2 187.2-41.324 0-80.501-13.198-113.298-38.163-4.566-3.493-11.092-2.595-14.576 1.971-3.479 4.571-2.595 11.097 1.976 14.576C166.549 449.336 210.083 464 255.999 464c114.691 0 208-93.309 208-208 0-45.916-14.664-89.445-42.401-125.887zm-110.552 30.134c-4.061 4.061-4.061 10.643 0 14.706l34.247 34.247H172.8c-5.741 0-10.4 4.659-10.4 10.4s4.659 10.4 10.4 10.4h197.601c4.207 0 7.998-2.532 9.61-6.422 1.612-3.884.723-8.356-2.257-11.331l-52-52c-4.061-4.061-10.644-4.061-14.706 0zM349.6 292.4c0-5.741-4.659-10.4-10.4-10.4H141.599c-4.207 0-7.998 2.532-9.61 6.417-1.612 3.89-.723 8.356 2.257 11.336l52 52c2.028 2.033 4.69 3.047 7.353 3.047s5.325-1.014 7.353-3.047c4.061-4.061 4.061-10.644 0-14.706L166.71 302.8h172.489c5.741 0 10.4-4.659 10.4-10.4z"/></svg>