<?xml version="1.0" encoding="UTF-8"?>
<svg xmlns="http://www.w3.org/2000/svg" xmlns:xlink="http://www.w3.org/1999/xlink" width="24pt" height="24pt" viewBox="0 0 24 24" version="1.1">
<g id="surface1">
<path style=" stroke:none;fill-rule:evenodd;fill:rgb(25.882353%,25.882353%,25.882353%);fill-opacity:1;" d="M 19.5 9 L 19.5 5.25 L 18.75 4.5 L 10.058594 4.5 L 8.78125 3.21875 L 8.25 3 L 0.75 3 L 0 3.75 L 0 20.25 L 0.75 21 L 0.0390625 20.011719 L 0.144531 19.691406 L 0.0390625 20.011719 L 0.75 21 L 18.773438 21 L 19.5 20.445312 L 23.449219 9.945312 L 22.726562 9 Z M 18 9 L 18 6 L 9.75 6 L 9.21875 5.78125 L 7.941406 4.5 L 1.5 4.5 L 1.5 15.625 L 3.039062 11.011719 L 3.75 10.5 L 10.941406 10.5 L 12.21875 9.21875 L 12.75 9 Z M 1.789062 19.5 L 18.199219 19.5 L 21.75 10.5 L 13.058594 10.5 L 11.78125 11.78125 L 11.25 12 L 4.289062 12 Z M 1.789062 19.5 "/>
</g>
</svg>
