<svg xmlns="http://www.w3.org/2000/svg" width="32" height="32" viewBox="0 0 32 32"><path fill="#ffffff" d="M16 4.300781c1.933594 0 3.851562.480469 5.542969 1.390625.316406.171875.710937.054688.878906-.261718.171875-.316407.050781-.710938-.265625-.882813C20.277344 3.535156 18.148438 3 16 3 8.832031 3 3 8.832031 3 16c0 2.042969.460938 4 1.371094 5.816406.113281.226563.34375.359375.582031.359375.097656 0 .195313-.023437.289063-.070312.320312-.160157.453124-.550781.289062-.871094C4.714844 19.601562 4.300781 17.839844 4.300781 16 4.300781 9.546875 9.546875 4.300781 16 4.300781zm10.351562 3.832031c-.21875-.285156-.628906-.339843-.914062-.125-.285156.21875-.339844.625-.121094.910157 1.558594 2.050781 2.382813 4.5 2.382813 7.082031 0 6.453125-5.246094 11.699219-11.699219 11.699219-2.582031 0-5.03125-.824219-7.082031-2.382813-.285157-.21875-.691407-.164062-.910157.121094s-.164062.695312.125.910156C10.410156 28.082031 13.128906 29 16 29c7.167969 0 13-5.832031 13-13 0-2.871094-.917969-5.589844-2.648438-7.867188zm-6.910156 1.882813c-.253906.253906-.253906.664063 0 .917969l2.140625 2.140625h-10.78125c-.359375 0-.652343.292969-.652343.652343 0 .355469.292968.648438.652343.648438h12.347657c.265624 0 .5-.160156.601562-.402344.101562-.242187.046875-.519531-.140625-.707031l-3.25-3.25c-.253906-.253906-.664063-.253906-.917969 0zm2.410156 8.257813c0-.355469-.292968-.648438-.652343-.648438H8.851562c-.265624 0-.5.160156-.601562.402344-.101562.242187-.046875.519531.140625.707031l3.25 3.25c.125.128906.292969.191406.460937.191406.164063 0 .332032-.0625.457032-.191406.253906-.253906.253906-.664063 0-.917969l-2.140625-2.140625h10.78125c.359375 0 .652343-.292969.652343-.652343zm0 0"/></svg>