<!-- Generated by IcoMoon.io -->
<svg version="1.1" xmlns="http://www.w3.org/2000/svg" width="512" height="512" viewBox="0 0 512 512">
<title></title>
<g id="icomoon-ignore">
</g>
<path d="M421.235 104.765c-40.954-44.72-99.817-72.765-165.235-72.765-123.712 0-224 100.288-224 224h42c0-100.516 81.484-182 182-182 53.821 0 102.175 23.37 135.492 60.509l-65.492 65.491h154v-154l-58.765 58.765z"></path>
<path d="M438 256c0 100.516-81.484 182-182 182-53.821 0-102.175-23.37-135.491-60.509l65.491-65.491h-154v154l58.765-58.765c40.954 44.72 99.817 72.765 165.235 72.765 123.712 0 224-100.288 224-224h-42z"></path>
</svg>
